<?xml version="1.0" encoding="UTF-8" standalone="no"?>
<svg xmlns:xlink="http://www.w3.org/1999/xlink" height="22.7px" width="298.25px" xmlns="http://www.w3.org/2000/svg">
  <g transform="matrix(1.0, 0.0, 0.0, 1.0, 6.15, 5.8)">
    <path d="M285.0 5.7 Q284.95 7.45 283.7 8.7 282.4 10.0 280.5 10.0 L5.5 10.0 Q3.6 10.0 2.3 8.7 1.05 7.45 1.0 5.7 L1.0 5.5 1.0 5.45 1.0 5.4 1.0 5.25 Q1.1 3.5 2.3 2.3 3.6 1.0 5.5 1.0 L280.5 1.0 Q282.4 1.0 283.7 2.3 284.9 3.5 285.0 5.25 L285.0 5.4 285.0 5.45 285.0 5.5 285.0 5.7" fill="url(#gradient0)" fill-rule="evenodd" stroke="none"/>
    <path d="M-5.05 3.45 L-5.05 3.65 -5.15 4.55 Q-5.15 0.65 -2.25 -2.15 0.65 -4.85 4.8 -4.85 L281.15 -4.85 Q285.35 -4.85 288.15 -2.15 289.2 -1.15 289.9 0.05 L288.15 -2.1 Q285.35 -4.8 281.15 -4.8 L4.8 -4.8 Q0.65 -4.8 -2.25 -2.1 -4.7 0.25 -5.05 3.45" fill="url(#gradient1)" fill-rule="evenodd" stroke="none"/>
    <path d="M-0.95 5.7 L-1.0 5.5 -1.0 5.4 -1.0 5.3 -1.0 5.2 -1.0 5.1 Q-0.85 2.65 0.9 0.9 2.8 -1.0 5.5 -1.0 L280.5 -1.0 Q283.2 -1.0 285.1 0.9 286.85 2.65 287.0 5.1 L287.0 5.2 287.0 5.3 287.0 5.4 287.0 5.5 287.0 5.7 Q286.8 8.0 285.1 9.7 283.2 11.6 280.5 11.6 L5.5 11.6 Q2.8 11.6 0.9 9.7 -0.8 8.0 -0.95 5.7 M285.0 5.7 L285.0 5.5 285.0 5.45 285.0 5.4 285.0 5.25 Q284.9 3.5 283.7 2.3 282.4 1.0 280.5 1.0 L5.5 1.0 Q3.6 1.0 2.3 2.3 1.1 3.5 1.0 5.25 L1.0 5.4 1.0 5.45 1.0 5.5 1.0 5.7 Q1.05 7.45 2.3 8.7 3.6 10.0 5.5 10.0 L280.5 10.0 Q282.4 10.0 283.7 8.7 284.95 7.45 285.0 5.7" fill="#2f6d9f" fill-rule="evenodd" stroke="none"/>
    <path d="M-5.05 3.45 Q-4.7 0.25 -2.25 -2.1 0.65 -4.8 4.8 -4.8 L281.15 -4.8 Q285.35 -4.8 288.15 -2.1 L289.9 0.05 290.9 2.5 291.0 3.1 291.05 3.45 291.1 4.35 291.1 4.4 291.1 4.6 291.1 5.7 287.0 5.7 287.0 5.5 287.0 5.4 287.0 5.3 287.0 5.2 287.0 5.1 Q286.85 2.65 285.1 0.9 283.2 -1.0 280.5 -1.0 L5.5 -1.0 Q2.8 -1.0 0.9 0.9 -0.85 2.65 -1.0 5.1 L-1.0 5.2 -1.0 5.3 -1.0 5.4 -1.0 5.5 -0.95 5.7 -5.1 5.7 -5.05 3.45" fill="url(#gradient2)" fill-rule="evenodd" stroke="none"/>
    <path d="M291.1 5.7 L291.1 6.25 Q291.0 10.0 288.15 12.65 285.35 15.45 281.15 15.45 L4.8 15.45 Q0.65 15.45 -2.25 12.65 -5.05 10.0 -5.15 6.25 L-5.1 5.7 -0.95 5.7 Q-0.8 8.0 0.9 9.7 2.8 11.6 5.5 11.6 L280.5 11.6 Q283.2 11.6 285.1 9.7 286.8 8.0 287.0 5.7 L291.1 5.7" fill="#29a8de" fill-rule="evenodd" stroke="none"/>
    <path d="M-5.05 3.45 Q-4.7 0.25 -2.25 -2.1 0.65 -4.8 4.8 -4.8 L281.15 -4.8 Q285.35 -4.8 288.15 -2.1 L289.9 0.05 290.9 2.5 291.0 3.1 291.05 3.45 291.1 4.35 291.1 4.4 M291.1 4.6 L291.1 5.7 291.1 6.25 291.1 6.45 Q291.1 10.35 288.15 13.1 285.35 15.9 281.15 15.9 L4.8 15.9 Q0.65 15.9 -2.25 13.1 -5.15 10.35 -5.15 6.45 L-5.15 6.25 -5.1 5.7 -5.05 3.45 Z" fill="none" stroke="#2f6d9f" stroke-linecap="round" stroke-linejoin="round" stroke-width="2.0"/>
  </g>
  <defs>
    <linearGradient gradientTransform="matrix(0.0, -0.006, 0.0067, 0.0, 143.0, 5.5)" gradientUnits="userSpaceOnUse" id="gradient0" spreadMethod="pad" x1="-819.2" x2="819.2">
      <stop offset="0.0" stop-color="#2f6d9f"/>
      <stop offset="1.0" stop-color="#01345a"/>
    </linearGradient>
    <linearGradient gradientTransform="matrix(0.0, 0.0126, -0.1808, 0.0, 143.0, 5.5)" gradientUnits="userSpaceOnUse" id="gradient1" spreadMethod="pad" x1="-819.2" x2="819.2">
      <stop offset="0.0" stop-color="#67d8f3"/>
      <stop offset="1.0" stop-color="#59cdff"/>
    </linearGradient>
    <linearGradient gradientTransform="matrix(0.0, 0.0126, -0.1808, 0.0, 143.0, 5.1)" gradientUnits="userSpaceOnUse" id="gradient2" spreadMethod="pad" x1="-819.2" x2="819.2">
      <stop offset="0.0" stop-color="#67d8f3"/>
      <stop offset="1.0" stop-color="#59cdff"/>
    </linearGradient>
  </defs>
</svg>
