<?xml version="1.0" encoding="UTF-8" standalone="no"?>
<svg xmlns:xlink="http://www.w3.org/1999/xlink" height="11.55px" width="9.85px" xmlns="http://www.w3.org/2000/svg">
  <g transform="matrix(1.0, 0.0, 0.0, 1.0, 4.95, 5.8)">
    <path d="M-1.7 -4.85 L-1.6 -5.0 -0.7 -4.05 0.15 -2.95 2.9 -5.55 3.85 -5.0 4.65 -4.7 2.35 -2.4 Q1.2 -1.3 0.65 -0.95 L0.2 0.6 -1.05 0.7 -2.4 0.6 -3.3 0.3 Q-1.7 -4.25 -1.7 -4.85" fill="#aa879d" fill-rule="evenodd" stroke="none"/>
    <path d="M-4.65 4.75 L-4.7 4.05 Q-4.7 1.8 -4.05 -0.2 -3.3 -2.55 -1.7 -4.85 -1.7 -4.25 -3.3 0.3 L-3.55 1.1 -3.95 2.2 -4.65 4.75" fill="#95d4ff" fill-rule="evenodd" stroke="none"/>
    <path d="M-0.7 2.65 Q-1.2 3.55 -1.85 4.1 -2.7 4.9 -4.6 5.5 L-4.65 4.75 -3.95 2.2 -3.25 2.45 -2.0 2.75 -0.85 2.6 -0.7 2.65" fill="#2e4054" fill-rule="evenodd" stroke="none"/>
    <path d="M0.2 0.6 L-0.65 2.55 -0.85 2.6 -2.0 2.75 -3.25 2.45 -3.95 2.2 -3.55 1.1 -3.3 0.3 -2.4 0.6 -1.05 0.7 0.2 0.6" fill="#ffc035" fill-rule="evenodd" stroke="none"/>
    <path d="M-1.7 -4.85 L-1.6 -5.0 -0.7 -4.05 0.15 -2.95 2.9 -5.55 3.85 -5.0 4.65 -4.7 2.35 -2.4 Q1.2 -1.3 0.65 -0.95 L0.2 0.6 -0.65 2.55 -0.7 2.65 Q-1.2 3.55 -1.85 4.1 -2.7 4.9 -4.6 5.5 L-4.65 4.75 -4.7 4.05 Q-4.7 1.8 -4.05 -0.2 -3.3 -2.55 -1.7 -4.85 Z" fill="none" stroke="#613953" stroke-linecap="round" stroke-linejoin="round" stroke-width="0.5"/>
  </g>
</svg>
