<?xml version="1.0" encoding="UTF-8" standalone="no"?>
<svg xmlns:xlink="http://www.w3.org/1999/xlink" height="30.0px" width="40.45px" xmlns="http://www.w3.org/2000/svg">
  <g transform="matrix(1.0, 0.0, 0.0, 1.0, 20.2, 15.0)">
    <path d="M-16.55 -6.15 L-13.4 -9.55 Q-10.7 -12.05 -7.25 -13.2 -3.95 -14.35 -0.45 -14.55 3.05 -14.9 6.5 -14.7 L7.85 -14.5 Q10.7 -14.1 13.2 -12.75 L13.7 -12.4 Q16.35 -10.65 17.85 -8.3 20.0 -5.0 20.0 -0.45 L19.95 1.15 Q19.95 2.65 19.45 4.05 L17.85 7.1 12.7 9.2 Q7.35 11.0 3.8 11.0 -15.1 11.0 -16.55 -6.15 M16.45 2.9 L16.75 3.6 17.4 4.05 18.15 3.75 Q18.5 3.45 18.5 2.95 L18.25 2.2 Q18.0 1.75 17.65 1.75 L16.85 1.95 16.6 2.15 16.6 2.1 16.55 2.25 Q16.35 2.5 16.45 2.9 M-11.1 2.8 L-11.2 3.65 Q-11.2 4.4 -10.85 4.95 -10.4 5.55 -9.7 5.55 -9.15 5.55 -8.8 5.25 -8.35 4.9 -8.35 4.25 -8.35 3.5 -8.85 2.95 -9.4 2.45 -10.1 2.45 L-10.85 2.65 -11.0 2.75 -11.05 2.7 -11.1 2.8" fill="#fdfdfd" fill-rule="evenodd" stroke="none"/>
    <path d="M17.85 7.1 L15.4 9.55 14.55 10.25 9.35 11.75 2.1 12.3 Q-4.6 12.3 -8.5 9.95 L-11.05 8.35 -13.5 6.1 Q-15.45 3.45 -16.4 1.2 -17.6 -1.55 -17.7 -4.5 L-17.7 -4.55 -16.55 -6.15 Q-15.1 11.0 3.8 11.0 7.35 11.0 12.7 9.2 L17.85 7.1" fill="#e2cae4" fill-rule="evenodd" stroke="none"/>
    <path d="M16.6 2.15 L16.85 1.95 17.65 1.75 Q18.0 1.75 18.25 2.2 L18.5 2.95 Q18.5 3.45 18.15 3.75 L17.4 4.05 16.75 3.6 16.45 2.9 16.45 2.65 16.55 2.25 16.6 2.15 M-11.0 2.75 L-10.85 2.65 -10.1 2.45 Q-9.4 2.45 -8.85 2.95 -8.35 3.5 -8.35 4.25 -8.35 4.9 -8.8 5.25 -9.15 5.55 -9.7 5.55 -10.4 5.55 -10.85 4.95 -11.2 4.4 -11.2 3.65 L-11.1 2.8 -11.0 2.75" fill="#fd7ca3" fill-rule="evenodd" stroke="none"/>
    <path d="M6.6 14.3 L4.05 14.65 0.55 14.7 Q-5.05 14.25 -9.6 12.2 -17.5 8.65 -19.95 1.05 L-19.85 0.6 Q-17.75 4.55 -14.45 7.5 -11.3 10.4 -7.25 11.95 -3.15 13.5 1.1 13.95 L6.6 14.3" fill="#95d4ff" fill-rule="evenodd" stroke="none"/>
    <path d="M14.55 10.25 L13.55 10.95 Q11.75 12.2 9.75 13.1 8.25 13.85 6.6 14.3 L1.1 13.95 Q-3.15 13.5 -7.25 11.95 -11.3 10.4 -14.45 7.5 -17.75 4.55 -19.85 0.6 -19.3 -2.15 -17.7 -4.5 -17.6 -1.55 -16.4 1.2 -15.45 3.45 -13.5 6.1 L-11.05 8.35 -8.5 9.95 Q-4.6 12.3 2.1 12.3 L9.35 11.75 14.55 10.25" fill="#a9869c" fill-rule="evenodd" stroke="none"/>
    <path d="M-16.55 -6.15 L-13.4 -9.55 Q-10.7 -12.05 -7.25 -13.2 -3.95 -14.35 -0.45 -14.55 3.05 -14.9 6.5 -14.7 L7.85 -14.5 Q10.7 -14.1 13.2 -12.75 L13.7 -12.4 Q16.35 -10.65 17.85 -8.3 20.0 -5.0 20.0 -0.45 L19.95 1.15 Q19.95 2.65 19.45 4.05 L17.85 7.1 15.4 9.55 14.55 10.25 13.55 10.95 Q11.75 12.2 9.75 13.1 8.25 13.85 6.6 14.3 L4.05 14.65 0.55 14.7 Q-5.05 14.25 -9.6 12.2 -17.5 8.65 -19.95 1.05 L-19.85 0.6 Q-19.3 -2.15 -17.7 -4.5 L-17.7 -4.55 -16.55 -6.15 Z" fill="none" stroke="#613953" stroke-linecap="round" stroke-linejoin="round" stroke-width="0.5"/>
  </g>
</svg>
