<?xml version="1.0" encoding="UTF-8" standalone="no"?>
<svg xmlns:xlink="http://www.w3.org/1999/xlink" height="16.7px" width="27.65px" xmlns="http://www.w3.org/2000/svg">
  <g transform="matrix(1.0, 0.0, 0.0, 1.0, 13.8, 8.35)">
    <path d="M2.2 5.25 Q2.25 6.4 2.55 7.15 2.95 8.1 3.6 8.1 4.4 8.1 4.7 6.8 L4.85 5.1" fill="none" stroke="#613953" stroke-linecap="round" stroke-linejoin="round" stroke-width="0.5"/>
    <path d="M-3.9 5.4 Q-5.15 6.1 -6.25 6.1 -8.55 6.1 -9.75 4.25 -10.8 2.65 -10.8 -0.15 L-10.75 -1.35 -10.6 -2.15 -9.55 -0.9 Q-9.05 -0.5 -8.05 -0.5 L-7.85 -0.5 -7.85 -0.45 Q-7.85 0.95 -7.1 1.9 -6.45 2.75 -5.7 2.75 -4.35 2.75 -3.3 1.15 -2.4 -0.25 -2.4 -1.55 -2.4 -2.9 -3.0 -3.9 -3.7 -5.05 -4.85 -5.05 L-5.7 -4.85 -5.8 -4.8 -6.4 -5.65 Q-7.15 -6.4 -8.25 -6.4 L-8.85 -6.35 Q-7.8 -7.55 -6.5 -8.05 L-4.6 -7.9 Q-3.2 -7.5 -2.3 -6.2 -1.1 -4.4 -1.1 -1.35 -1.1 0.0 -1.4 1.25 -2.0 3.75 -3.7 5.35 L-3.9 5.4" fill="#2aaa91" fill-rule="evenodd" stroke="none"/>
    <path d="M-7.85 -0.5 L-8.05 -0.5 Q-9.05 -0.5 -9.55 -0.9 L-10.6 -2.15 -10.75 -1.35 -10.8 -0.15 Q-10.8 2.65 -9.75 4.25 -8.55 6.1 -6.25 6.1 -5.15 6.1 -3.9 5.4 L-3.85 5.45 -5.75 6.65 -8.45 6.9 Q-9.75 6.55 -10.8 5.75 -12.05 4.8 -12.8 3.1 -14.0 0.45 -13.25 -2.4 -12.35 -5.5 -9.4 -7.2 -8.0 -7.95 -6.5 -8.05 -7.8 -7.55 -8.85 -6.35 L-8.25 -6.4 Q-7.15 -6.4 -6.4 -5.65 L-5.8 -4.8 -5.6 -3.4 Q-5.6 -2.1 -6.2 -1.35 -6.8 -0.6 -7.85 -0.5" fill="#fdfdfd" fill-rule="evenodd" stroke="none"/>
    <path d="M-5.8 -4.8 L-5.7 -4.85 -4.85 -5.05 Q-3.7 -5.05 -3.0 -3.9 -2.4 -2.9 -2.4 -1.55 -2.4 -0.25 -3.3 1.15 -4.35 2.75 -5.7 2.75 -6.45 2.75 -7.1 1.9 -7.85 0.95 -7.85 -0.45 L-7.85 -0.5 Q-6.8 -0.6 -6.2 -1.35 -5.6 -2.1 -5.6 -3.4 L-5.8 -4.8" fill="#12818a" fill-rule="evenodd" stroke="none"/>
    <path d="M-3.7 5.35 Q-2.0 3.75 -1.4 1.25 -1.1 0.0 -1.1 -1.35 -1.1 -4.4 -2.3 -6.2 -3.2 -7.5 -4.6 -7.9 L-6.5 -8.05 Q-8.0 -7.95 -9.4 -7.2 -12.35 -5.5 -13.25 -2.4 -14.0 0.45 -12.8 3.1 -12.05 4.8 -10.8 5.75 -9.75 6.55 -8.45 6.9 L-5.75 6.65 -3.85 5.45 -3.7 5.35 Z" fill="none" stroke="#613953" stroke-linecap="round" stroke-linejoin="round" stroke-width="0.5"/>
    <path d="M13.45 3.3 L13.0 4.4 Q12.3 5.45 11.25 5.45 9.0 5.45 7.0 2.35 5.6 0.15 5.25 -2.05 4.85 -3.75 5.25 -5.2 L5.5 -5.85 Q6.75 -8.8 9.55 -7.55 L10.05 -7.25 9.15 -7.4 Q7.55 -7.4 7.3 -6.2 L7.25 -6.15 7.35 -6.2 8.1 -6.25 Q9.0 -6.25 9.4 -5.05 L9.55 -4.7 9.7 -3.15 9.35 -1.5 8.55 -0.5 8.2 -0.45 Q7.55 -0.45 7.0 -0.75 L6.95 -0.8 6.95 -0.75 Q7.5 1.0 8.5 2.4 9.85 4.4 11.4 4.4 12.45 4.4 13.35 3.3 L13.45 3.3" fill="#fdfdfd" fill-rule="evenodd" stroke="none"/>
    <path d="M13.35 3.3 Q12.45 4.4 11.4 4.4 9.85 4.4 8.5 2.4 7.5 1.0 6.95 -0.75 L7.0 -0.75 Q7.55 -0.45 8.2 -0.45 L8.55 -0.5 8.9 0.45 Q9.6 1.75 10.8 1.75 11.35 1.75 11.9 1.0 12.45 0.25 12.45 -0.45 12.45 -1.65 11.75 -3.25 11.0 -5.05 10.05 -5.05 L9.55 -4.75 9.55 -4.7 9.4 -5.05 Q9.0 -6.25 8.1 -6.25 L7.35 -6.2 7.3 -6.2 Q7.55 -7.4 9.15 -7.4 L10.05 -7.25 11.55 -5.6 Q12.4 -4.3 13.0 -2.4 13.6 0.0 13.6 2.2 L13.5 3.05 13.35 3.3" fill="#2aaa91" fill-rule="evenodd" stroke="none"/>
    <path d="M8.55 -0.5 L9.35 -1.5 9.7 -3.15 9.55 -4.7 9.55 -4.75 10.05 -5.05 Q11.0 -5.05 11.75 -3.25 12.45 -1.65 12.45 -0.45 12.45 0.25 11.9 1.0 11.35 1.75 10.8 1.75 9.6 1.75 8.9 0.45 L8.55 -0.5" fill="#12818a" fill-rule="evenodd" stroke="none"/>
    <path d="M10.05 -7.25 L9.55 -7.55 Q6.75 -8.8 5.5 -5.85 L5.25 -5.2 Q4.85 -3.75 5.25 -2.05 5.6 0.15 7.0 2.35 9.0 5.45 11.25 5.45 12.3 5.45 13.0 4.4 L13.45 3.3 13.5 3.05 13.6 2.2 Q13.6 0.0 13.0 -2.4 12.4 -4.3 11.55 -5.6 L10.05 -7.25 Z" fill="none" stroke="#613953" stroke-linecap="round" stroke-linejoin="round" stroke-width="0.5"/>
  </g>
</svg>
