<?xml version="1.0" encoding="UTF-8" standalone="no"?>
<svg xmlns:xlink="http://www.w3.org/1999/xlink" height="8.6px" width="9.55px" xmlns="http://www.w3.org/2000/svg">
  <g transform="matrix(1.0, 0.0, 0.0, 1.0, 4.75, 4.25)">
    <path d="M0.35 -4.0 Q0.65 -3.8 0.95 -3.7 L2.1 -3.1 2.05 -3.0 1.25 -2.85 Q0.75 -2.65 0.75 -2.25 L0.75 -2.15 0.55 -2.25 -2.25 -3.5 Q-1.35 -4.1 -0.3 -4.1 L0.35 -4.0 M3.6 -1.85 L3.85 -1.5 Q4.7 -0.35 4.55 1.05 L4.2 2.4 3.7 2.45 Q2.75 2.45 2.55 1.15 L2.1 -0.75 1.7 -1.25 1.75 -1.25 2.2 -1.2 Q2.75 -1.2 3.35 -1.65 L3.6 -1.85" fill="#fee97c" fill-rule="evenodd" stroke="none"/>
    <path d="M2.35 -2.95 L3.3 -2.2 3.6 -1.9 3.6 -1.85 3.35 -1.65 Q2.75 -1.2 2.2 -1.2 L1.75 -1.25 1.7 -1.25 0.75 -2.15 0.75 -2.25 Q0.75 -2.65 1.25 -2.85 L2.05 -3.0 2.35 -2.95" fill="#fdfdfd" fill-rule="evenodd" stroke="none"/>
    <path d="M4.2 2.4 L3.75 3.05 Q2.85 4.1 1.2 4.1 L-0.45 3.75 -1.3 3.5 0.35 3.2 Q1.5 2.7 1.5 1.5 1.5 0.35 -0.2 -0.25 L-3.05 -0.75 -4.5 -0.8 Q-3.75 -2.4 -2.65 -3.25 L-2.25 -3.5 0.55 -2.25 0.75 -2.15 1.7 -1.25 2.1 -0.75 2.55 1.15 Q2.75 2.45 3.7 2.45 L4.2 2.4" fill="#ffc035" fill-rule="evenodd" stroke="none"/>
    <path d="M0.35 -4.0 Q0.65 -3.8 0.95 -3.7 L2.1 -3.1 2.35 -2.95 3.3 -2.2 3.6 -1.9 3.6 -1.85 3.85 -1.5 Q4.7 -0.35 4.55 1.05 L4.2 2.4 3.75 3.05 Q2.85 4.1 1.2 4.1 L-0.45 3.75 -1.3 3.5 0.35 3.2 Q1.5 2.7 1.5 1.5 1.5 0.35 -0.2 -0.25 L-3.05 -0.75 -4.5 -0.8" fill="none" stroke="#613953" stroke-linecap="round" stroke-linejoin="round" stroke-width="0.5"/>
  </g>
</svg>
