<?xml version="1.0" encoding="UTF-8" standalone="no"?>
<svg xmlns:xlink="http://www.w3.org/1999/xlink" height="18.1px" width="8.3px" xmlns="http://www.w3.org/2000/svg">
  <g transform="matrix(1.0, 0.0, 0.0, 1.0, 4.15, 9.0)">
    <path d="M-1.65 -4.35 L-0.2 -6.1 Q1.25 -7.7 2.85 -8.45 L3.9 -8.85 3.9 -8.75 3.65 -0.15 2.9 8.5 2.75 8.5 0.95 3.95 -1.65 -4.35" fill="#ffc035" fill-rule="evenodd" stroke="none"/>
    <path d="M-3.5 -0.65 Q-2.95 -2.55 -1.65 -4.35 L0.95 3.95 2.75 8.5 0.0 5.1 Q-1.8 2.8 -3.5 -0.65" fill="#aa879d" fill-rule="evenodd" stroke="none"/>
    <path d="M2.8 8.8 L0.3 6.6 Q-1.5 4.7 -3.9 0.15 -3.7 0.15 -3.5 -0.65 -1.8 2.8 0.0 5.1 L2.75 8.5 2.85 8.7 2.8 8.8" fill="#95d4ff" fill-rule="evenodd" stroke="none"/>
    <path d="M3.9 -8.75 L3.65 -0.15 2.9 8.5 2.85 8.6 2.85 8.7 2.85 8.85 2.8 8.8 0.3 6.6 Q-1.5 4.7 -3.9 0.15" fill="none" stroke="#613953" stroke-linecap="round" stroke-linejoin="round" stroke-width="0.5"/>
  </g>
</svg>
