<?xml version="1.0" encoding="UTF-8" standalone="no"?>
<svg xmlns:xlink="http://www.w3.org/1999/xlink" height="7.25px" width="7.0px" xmlns="http://www.w3.org/2000/svg">
  <g transform="matrix(1.0, 0.0, 0.0, 1.0, 3.5, 3.6)">
    <path d="M0.45 -2.0 L0.8 -1.25 1.6 -1.15 2.5 -1.1 0.8 0.65 0.9 2.65 -0.5 1.6 -1.2 1.95 -2.15 2.25 -1.9 1.55 -1.55 0.3 -1.6 0.3 -2.2 -0.55 -2.5 -1.1 -1.55 -1.25 -0.65 -1.3 -0.15 -2.15 0.15 -2.6 0.45 -2.0 M-0.7 -0.5 L-0.85 -0.2 -0.65 0.45 -0.1 0.7 0.35 0.55 0.65 0.0 0.5 -0.55 Q0.35 -0.9 0.0 -0.9 L-0.45 -0.8 -0.5 -0.8 -0.75 -0.5 -0.7 -0.5" fill="#ffe97c" fill-rule="evenodd" stroke="none"/>
    <path d="M-0.45 -0.8 L0.0 -0.9 Q0.35 -0.9 0.5 -0.55 L0.65 0.0 0.35 0.55 -0.1 0.7 -0.65 0.45 -0.85 -0.2 -0.7 -0.5 -0.4 -0.75 -0.45 -0.8" fill="#fefdf8" fill-rule="evenodd" stroke="none"/>
    <path d="M0.45 -2.0 L0.15 -2.6 -0.15 -2.15 -0.65 -1.3 -1.55 -1.25 -2.5 -1.1 -2.2 -0.55 -1.6 0.3 -1.55 0.3 -1.9 1.55 -2.15 2.25 -1.2 1.95 -0.5 1.6 0.9 2.65 0.8 0.65 2.5 -1.1 1.6 -1.15 0.8 -1.25 0.45 -2.0 Z" fill="none" stroke="#ffbe34" stroke-linecap="round" stroke-linejoin="round" stroke-width="2.0"/>
  </g>
</svg>
