<?xml version="1.0" encoding="UTF-8" standalone="no"?>
<svg xmlns:xlink="http://www.w3.org/1999/xlink" height="13.0px" width="288.0px" xmlns="http://www.w3.org/2000/svg">
  <g transform="matrix(1.0, 0.0, 0.0, 1.0, 1.0, 1.0)">
    <path d="M286.0 5.5 Q286.0 7.8 284.4 9.4 282.8 11.0 280.5 11.0 L5.5 11.0 Q3.2 11.0 1.6 9.4 0.0 7.8 0.0 5.5 L0.0 5.4 Q0.05 3.15 1.6 1.6 3.2 0.0 5.5 0.0 L280.5 0.0 Q282.8 0.0 284.4 1.6 285.95 3.15 286.0 5.4 L286.0 5.5" fill="#ffff00" fill-rule="evenodd" stroke="none"/>
    <path d="M286.0 5.5 L286.0 5.4 Q285.95 3.15 284.4 1.6 282.8 0.0 280.5 0.0 L5.5 0.0 Q3.2 0.0 1.6 1.6 0.05 3.15 0.0 5.4 L0.0 5.5 Q0.0 7.8 1.6 9.4 3.2 11.0 5.5 11.0 L280.5 11.0 Q282.8 11.0 284.4 9.4 286.0 7.8 286.0 5.5 Z" fill="none" stroke="#ffff00" stroke-linecap="round" stroke-linejoin="round" stroke-width="2.0"/>
  </g>
</svg>
