<?xml version="1.0" encoding="UTF-8" standalone="no"?>
<svg xmlns:xlink="http://www.w3.org/1999/xlink" height="10.0px" width="285.0px" xmlns="http://www.w3.org/2000/svg">
  <g transform="matrix(1.0, 0.0, 0.0, 1.0, -0.5, -0.5)">
    <path d="M285.5 5.65 Q285.45 7.65 284.05 9.05 282.6 10.5 280.5 10.5 L5.5 10.5 Q3.4 10.5 1.95 9.05 0.55 7.65 0.5 5.65 L285.5 5.65" fill="url(#gradient0)" fill-rule="evenodd" stroke="none"/>
    <path d="M0.5 5.65 L0.5 5.5 0.5 5.4 Q0.55 3.35 1.95 1.95 3.4 0.5 5.5 0.5 L280.5 0.5 Q282.6 0.5 284.05 1.95 285.45 3.35 285.5 5.4 L285.5 5.5 285.5 5.65 0.5 5.65" fill="url(#gradient1)" fill-rule="evenodd" stroke="none"/>
  </g>
  <defs>
    <linearGradient gradientTransform="matrix(0.174, 0.0, 0.0, 0.003, 143.0, 8.05)" gradientUnits="userSpaceOnUse" id="gradient0" spreadMethod="pad" x1="-819.2" x2="819.2">
      <stop offset="0.0" stop-color="#ffbf00"/>
      <stop offset="0.49411764705882355" stop-color="#ffcc00"/>
      <stop offset="1.0" stop-color="#ffbf00"/>
    </linearGradient>
    <linearGradient gradientTransform="matrix(0.174, 0.0, 0.0, 0.0031, 143.0, 3.05)" gradientUnits="userSpaceOnUse" id="gradient1" spreadMethod="pad" x1="-819.2" x2="819.2">
      <stop offset="0.0" stop-color="#ffff33"/>
      <stop offset="0.5176470588235295" stop-color="#ffff99"/>
      <stop offset="1.0" stop-color="#ffff33"/>
    </linearGradient>
  </defs>
</svg>
