<?xml version="1.0" encoding="UTF-8" standalone="no"?>
<svg xmlns:xlink="http://www.w3.org/1999/xlink" height="42.85px" width="66.8px" xmlns="http://www.w3.org/2000/svg">
  <g transform="matrix(1.0, 0.0, 0.0, 1.0, 33.4, 21.45)">
    <path d="M4.5 -19.9 L4.55 -19.55 4.8 -19.15 Q5.2 -18.7 5.9 -18.7 L5.95 -18.7 6.6 -18.85 Q6.9 -19.05 6.9 -19.6 L6.6 -20.25 6.4 -20.4 5.6 -20.6 4.9 -20.4 4.5 -20.0 4.45 -19.9 4.5 -19.9 M-1.6 -20.15 L-0.1 -20.65 3.75 -21.2 6.55 -21.0 8.4 -20.4 8.6 -19.05 Q8.6 -18.15 8.05 -17.2 L7.25 -16.25 Q11.4 -13.75 14.75 -9.5 17.25 -6.35 18.8 -2.95 L20.95 -3.1 25.95 -2.65 28.6 -2.05 Q28.6 -3.25 28.95 -4.1 29.35 -4.95 29.85 -4.95 31.35 -4.95 32.35 -2.2 L32.65 -1.4 32.25 -0.95 Q31.35 -0.15 30.8 -0.15 L29.25 -0.55 28.2 -0.25 25.6 0.3 20.85 -0.5 20.35 -0.55 17.9 -0.9 17.3 -0.8 Q15.75 -0.45 14.6 0.85 L14.55 0.9 14.2 0.85 14.15 0.85 10.9 0.4 Q10.55 -2.75 9.3 -7.0 7.7 -12.6 5.45 -16.7 L5.3 -17.0 4.25 -17.05 1.95 -17.4 Q-0.65 -18.1 -1.6 -20.15 M-32.0 -5.1 L-31.25 -5.9 Q-29.9 -7.1 -28.8 -7.1 L-27.8 -6.95 -26.6 -5.85 Q-26.05 -5.0 -25.85 -3.75 L-21.85 -4.2 -18.6 -4.25 -15.1 -4.05 -13.6 -3.15 Q-12.95 -2.6 -12.9 -2.25 L-17.85 -0.85 -19.55 -0.5 -21.2 -0.15 -24.45 -0.35 -24.45 -0.3 -23.5 3.65 Q-22.8 5.95 -21.95 7.5 L-22.55 6.75 Q-24.9 3.65 -26.25 0.45 L-26.25 0.4 -26.65 -0.45 -26.8 -0.7 -27.35 -2.25 -27.7 -2.1 -28.6 -1.95 -29.3 -2.0 Q-30.15 -2.15 -30.7 -2.6 -31.6 -3.3 -32.0 -5.1 M-28.3 -5.75 L-28.45 -5.6 -28.75 -5.0 -28.65 -4.3 -28.6 -4.25 Q-28.35 -3.85 -27.75 -3.85 -27.55 -3.85 -27.25 -4.1 -26.85 -4.4 -26.85 -4.75 -26.85 -5.2 -27.15 -5.45 L-28.0 -5.75 -28.2 -5.75 -28.3 -5.75" fill="#ffe97a" fill-rule="evenodd" stroke="none"/>
    <path d="M4.5 -20.0 L4.9 -20.4 5.6 -20.6 6.4 -20.4 6.6 -20.25 6.9 -19.6 Q6.9 -19.05 6.6 -18.85 L5.95 -18.7 5.9 -18.7 Q5.2 -18.7 4.8 -19.15 L4.55 -19.55 4.5 -19.9 4.5 -20.0 M-15.1 -4.05 L-13.5 -3.9 -11.9 -3.6 -11.65 -3.45 -11.25 -3.2 -9.85 -1.95 Q-11.25 -1.25 -13.55 -0.75 L-19.65 -0.1 -20.15 -0.1 -21.2 -0.15 -19.55 -0.5 -17.85 -0.85 -12.9 -2.25 Q-12.95 -2.6 -13.6 -3.15 L-15.1 -4.05 M14.6 0.85 Q15.75 -0.45 17.3 -0.8 L17.9 -0.9 20.35 -0.55 20.85 -0.5 25.6 0.3 20.8 0.85 19.65 0.9 14.6 0.9 14.6 0.85 M-28.2 -5.75 L-28.0 -5.75 -27.15 -5.45 Q-26.85 -5.2 -26.85 -4.75 -26.85 -4.4 -27.25 -4.1 -27.55 -3.85 -27.75 -3.85 -28.35 -3.85 -28.6 -4.25 L-28.65 -4.3 -28.75 -5.0 -28.45 -5.6 -28.3 -5.75 -28.2 -5.75" fill="#fdfdfd" fill-rule="evenodd" stroke="none"/>
    <path d="M32.65 -1.4 L33.0 0.0 32.7 0.2 Q31.3 1.15 29.7 1.15 29.3 5.3 25.7 7.75 23.3 9.4 20.65 10.5 L17.8 11.5 9.25 13.5 0.35 14.7 Q-4.3 15.25 -8.45 14.55 -12.6 13.8 -16.25 12.05 -19.25 10.55 -21.55 7.95 L-21.95 7.5 Q-22.8 5.95 -23.5 3.65 L-24.45 -0.3 -24.45 -0.35 -21.2 -0.15 -20.15 -0.1 -19.65 -0.1 -13.55 -0.75 Q-11.25 -1.25 -9.85 -1.95 L-11.25 -3.2 -11.65 -3.45 -11.6 -3.5 Q-9.8 -7.6 -5.4 -11.7 -2.25 -14.6 0.5 -16.25 L-0.4 -16.8 Q-2.4 -18.2 -2.4 -19.55 L-2.4 -19.6 -1.6 -20.15 Q-0.65 -18.1 1.95 -17.4 L4.25 -17.05 5.3 -17.0 5.45 -16.7 Q7.7 -12.6 9.3 -7.0 10.55 -2.75 10.9 0.4 L14.15 0.85 14.2 0.85 14.55 0.9 14.6 0.9 19.65 0.9 20.8 0.85 25.6 0.3 28.2 -0.25 29.25 -0.55 30.8 -0.15 Q31.35 -0.15 32.25 -0.95 L32.65 -1.4 M-32.85 -3.55 L-32.0 -5.1 Q-31.6 -3.3 -30.7 -2.6 -30.15 -2.15 -29.3 -2.0 L-28.6 -1.95 -27.7 -2.1 -27.35 -2.25 -26.8 -0.7 -26.65 -0.45 -29.6 -0.85 -30.15 -1.05 Q-32.3 -1.85 -32.85 -3.55" fill="#ffc035" fill-rule="evenodd" stroke="none"/>
    <path d="M33.0 0.0 L33.15 1.35 33.1 1.4 32.6 2.0 Q31.6 3.05 30.35 2.5 L30.2 3.05 30.2 3.2 30.0 3.55 Q29.4 4.75 28.85 6.75 27.85 9.45 25.5 13.45 L25.25 13.9 22.8 16.35 Q22.1 16.95 20.8 17.45 19.0 18.2 16.05 18.7 L6.7 19.85 Q2.4 20.25 -1.9 20.05 -6.1 19.8 -10.4 18.5 -14.7 17.2 -18.6 14.7 -20.85 13.3 -22.45 11.5 L-24.55 8.55 -28.45 0.95 -28.5 0.8 -29.85 1.05 -30.1 1.1 -31.05 1.2 -32.5 -0.35 -33.1 -1.45 -33.15 -1.5 -32.85 -3.55 Q-32.3 -1.85 -30.15 -1.05 L-29.6 -0.85 -26.65 -0.45 -26.25 0.4 -26.25 0.45 Q-24.9 3.65 -22.55 6.75 L-21.95 7.5 -21.55 7.95 Q-19.25 10.55 -16.25 12.05 -12.6 13.8 -8.45 14.55 -4.3 15.25 0.35 14.7 L9.25 13.5 17.8 11.5 20.65 10.5 Q23.3 9.4 25.7 7.75 29.3 5.3 29.7 1.15 31.3 1.15 32.7 0.2 L33.0 0.0" fill="#a9869c" fill-rule="evenodd" stroke="none"/>
    <path d="M33.15 1.45 L32.85 3.1 Q32.5 4.0 31.95 4.0 31.3 4.0 31.0 3.7 L30.8 3.4 Q30.2 6.95 28.75 10.2 27.15 13.7 24.35 16.15 21.65 18.5 18.2 19.45 L11.1 20.65 4.0 21.1 -3.4 20.9 Q-6.9 20.65 -10.35 19.7 -13.45 18.85 -16.4 17.6 -19.95 16.15 -22.35 13.2 -24.7 10.25 -26.4 6.9 -27.85 4.05 -28.55 1.0 L-29.2 1.4 -30.35 1.95 -31.25 2.1 -32.4 1.8 -32.65 1.05 -33.15 -1.4 -33.1 -1.45 -32.5 -0.35 -31.05 1.2 -30.1 1.1 -29.85 1.05 -28.5 0.8 -28.45 0.95 -24.55 8.55 -22.45 11.5 Q-20.85 13.3 -18.6 14.7 -14.7 17.2 -10.4 18.5 -6.1 19.8 -1.9 20.05 2.4 20.25 6.7 19.85 L16.05 18.7 Q19.0 18.2 20.8 17.45 22.1 16.95 22.8 16.35 L25.25 13.9 25.5 13.45 Q27.85 9.45 28.85 6.75 29.4 4.75 30.0 3.55 L30.2 3.2 30.2 3.05 30.35 2.5 Q31.6 3.05 32.6 2.0 L33.1 1.4 33.15 1.45" fill="#95d4ff" fill-rule="evenodd" stroke="none"/>
    <path d="M-1.6 -20.15 L-0.1 -20.65 3.75 -21.2 6.55 -21.0 8.4 -20.4 8.6 -19.05 Q8.6 -18.15 8.05 -17.2 L7.25 -16.25 Q11.4 -13.75 14.75 -9.5 17.25 -6.35 18.8 -2.95 L20.95 -3.1 25.95 -2.65 28.6 -2.05 Q28.6 -3.25 28.95 -4.1 29.35 -4.95 29.85 -4.95 31.35 -4.95 32.35 -2.2 L32.65 -1.4 33.0 0.0 33.15 1.35 33.15 1.45 32.85 3.1 Q32.5 4.0 31.95 4.0 31.3 4.0 31.0 3.7 L30.8 3.4 Q30.2 6.95 28.75 10.2 27.15 13.7 24.35 16.15 21.65 18.5 18.2 19.45 L11.1 20.65 4.0 21.1 -3.4 20.9 Q-6.9 20.65 -10.35 19.7 -13.45 18.85 -16.4 17.6 -19.95 16.15 -22.35 13.2 -24.7 10.25 -26.4 6.9 -27.85 4.05 -28.55 1.0 L-29.2 1.4 -30.35 1.95 -31.25 2.1 -32.4 1.8 -32.65 1.05 -33.15 -1.4 -33.15 -1.5 -32.85 -3.55 -32.0 -5.1 -31.25 -5.9 Q-29.9 -7.1 -28.8 -7.1 L-27.8 -6.95 -26.6 -5.85 Q-26.05 -5.0 -25.85 -3.75 L-21.85 -4.2 -18.6 -4.25 -15.1 -4.05 -13.5 -3.9 -11.9 -3.6 -11.6 -3.5 Q-9.8 -7.6 -5.4 -11.7 -2.25 -14.6 0.5 -16.25 L-0.4 -16.8 Q-2.4 -18.2 -2.4 -19.55 L-2.4 -19.6 -1.6 -20.15 Z" fill="none" stroke="#613953" stroke-linecap="round" stroke-linejoin="round" stroke-width="0.5"/>
  </g>
</svg>
