<?xml version="1.0" encoding="UTF-8" standalone="no"?>
<svg xmlns:xlink="http://www.w3.org/1999/xlink" height="13.4px" width="7.05px" xmlns="http://www.w3.org/2000/svg">
  <g transform="matrix(1.0, 0.0, 0.0, 1.0, 3.5, 6.6)">
    <path d="M1.8 6.3 L1.0 2.0 Q0.4 -2.05 0.3 -5.15 L0.15 -6.5 0.1 -6.45 -0.05 -6.6 0.1 -6.55 0.15 -6.55 1.6 -5.5 3.3 -3.7 Q3.35 -0.15 3.0 2.05 2.6 4.65 1.8 6.3" fill="#ffc035" fill-rule="evenodd" stroke="none"/>
    <path d="M0.1 -6.45 L0.15 -6.5 0.3 -5.15 Q0.4 -2.05 1.0 2.0 L1.8 6.3 1.65 6.55 1.45 6.4 -0.95 1.35 -2.75 -2.0 -1.7 -4.45 Q-1.15 -5.4 -0.15 -5.85 L0.1 -6.45" fill="#a9869c" fill-rule="evenodd" stroke="none"/>
    <path d="M-2.75 -2.0 L-0.95 1.35 1.45 6.4 -0.9 3.4 -3.25 -0.45 -2.75 -2.0" fill="#95d4ff" fill-rule="evenodd" stroke="none"/>
    <path d="M1.45 6.4 L1.65 6.55 1.8 6.3 Q2.6 4.65 3.0 2.05 3.35 -0.15 3.3 -3.7 M1.45 6.4 L-0.9 3.4 -3.25 -0.45" fill="none" stroke="#613953" stroke-linecap="round" stroke-linejoin="round" stroke-width="0.5"/>
  </g>
</svg>
