<?xml version="1.0" encoding="UTF-8" standalone="no"?>
<svg xmlns:xlink="http://www.w3.org/1999/xlink" height="11.6px" width="9.85px" xmlns="http://www.w3.org/2000/svg">
  <g transform="matrix(1.0, 0.0, 0.0, 1.0, 4.9, 5.8)">
    <path d="M-1.65 -4.85 L-1.55 -5.0 -0.65 -4.05 0.2 -2.95 2.9 -5.55 3.9 -5.0 4.7 -4.7 2.4 -2.4 0.65 -0.95 0.25 0.6 -1.05 0.7 -2.35 0.6 -3.25 0.35 Q-1.7 -4.25 -1.65 -4.85" fill="#aa879d" fill-rule="evenodd" stroke="none"/>
    <path d="M-4.6 4.75 L-4.65 4.05 Q-4.65 1.8 -4.0 -0.2 -3.25 -2.5 -1.65 -4.85 -1.7 -4.25 -3.25 0.35 L-3.5 1.15 -3.9 2.2 -4.6 4.75" fill="#95d4ff" fill-rule="evenodd" stroke="none"/>
    <path d="M-0.7 2.7 Q-1.2 3.55 -1.85 4.1 -2.7 4.9 -4.55 5.55 L-4.6 4.75 -3.9 2.2 -3.2 2.5 -2.0 2.75 -0.8 2.6 -0.7 2.7" fill="#2e4054" fill-rule="evenodd" stroke="none"/>
    <path d="M0.25 0.6 L-0.6 2.55 -0.8 2.6 -2.0 2.75 -3.2 2.5 -3.9 2.2 -3.5 1.15 -3.25 0.35 -2.35 0.6 -1.05 0.7 0.25 0.6" fill="#ffc035" fill-rule="evenodd" stroke="none"/>
    <path d="M-1.65 -4.85 L-1.55 -5.0 -0.65 -4.05 0.2 -2.95 2.9 -5.55 3.9 -5.0 4.7 -4.7 2.4 -2.4 0.65 -0.95 0.25 0.6 -0.6 2.55 -0.7 2.7 Q-1.2 3.55 -1.85 4.1 -2.7 4.9 -4.55 5.55 L-4.6 4.75 -4.65 4.05 Q-4.65 1.8 -4.0 -0.2 -3.25 -2.5 -1.65 -4.85 Z" fill="none" stroke="#613953" stroke-linecap="round" stroke-linejoin="round" stroke-width="0.5"/>
  </g>
</svg>
